<svg xmlns="http://www.w3.org/2000/svg" width="1024" height="294" viewBox="0 0 1024 294" version="1.1"><path d="M 469.932 38.744 C 504.998 39.002, 507.895 39.155, 508.280 40.762 C 508.592 42.064, 508.672 41.998, 508.598 40.500 C 508.502 38.537, 507.794 38.500, 470.250 38.482 L 432 38.464 469.932 38.744 M 458.304 49.747 C 464.247 49.924, 473.697 49.923, 479.304 49.745 C 484.912 49.567, 480.050 49.422, 468.500 49.423 C 456.950 49.424, 452.362 49.570, 458.304 49.747 M 661.500 70 C 658.234 73.300, 655.999 75.949, 656.531 75.887 C 657.488 75.775, 668.728 64, 667.877 64 C 667.635 64, 664.766 66.700, 661.500 70 M 580.971 78.750 L 574.500 85.500 581.250 79.029 C 587.520 73.018, 588.457 72, 587.721 72 C 587.568 72, 584.530 75.037, 580.971 78.750 M 710.206 86.741 C 713.895 86.932, 720.195 86.934, 724.206 86.743 C 728.218 86.553, 725.200 86.396, 717.500 86.395 C 709.800 86.393, 706.518 86.549, 710.206 86.741 M 1005.693 89.263 C 1004.778 91.043, 1003.235 93.606, 1002.264 94.957 C 1001.294 96.309, 1001.057 97.073, 1001.738 96.656 C 1003.267 95.718, 1008.410 87.076, 1007.801 86.467 C 1007.557 86.224, 1006.609 87.482, 1005.693 89.263 M 471.250 95.728 C 473.313 95.944, 476.688 95.944, 478.750 95.728 C 480.813 95.513, 479.125 95.336, 475 95.336 C 470.875 95.336, 469.188 95.513, 471.250 95.728 M 111.828 112.750 C 147.208 112.896, 204.808 112.896, 239.828 112.750 C 274.847 112.604, 245.900 112.485, 175.500 112.485 C 105.100 112.485, 76.447 112.604, 111.828 112.750 M 165.831 135.737 C 161.428 139.236, 155.529 145.999, 149.453 154.514 C 146.907 158.081, 144.724 161, 144.600 161 C 144.477 161, 144.400 156.387, 144.429 150.750 C 144.469 142.773, 144.089 139.779, 142.715 137.250 C 139.291 130.950, 133.477 134.149, 127.757 145.482 C 124.803 151.333, 116 176.693, 116 179.351 C 116 180.911, 112.843 184, 111.248 184 C 110.646 184, 108.804 182.650, 107.154 181 C 102.431 176.277, 94.784 177.252, 87.922 183.452 C 83.364 187.570, 80.244 187.932, 75.355 184.911 C 70.852 182.127, 69.722 179.865, 71.063 176.315 C 72.608 172.228, 77.009 168, 79.719 168 C 83.271 168, 89 165.295, 89 163.618 C 89 162.802, 86.975 160.475, 84.500 158.446 C 80.645 155.288, 80 154.230, 80 151.068 C 80 146.937, 83.142 142.688, 85.816 143.203 C 86.714 143.376, 88.005 144.631, 88.683 145.992 C 91.358 151.357, 97.221 152.804, 99.148 148.574 C 100.701 145.165, 99.441 141.241, 95.541 137.341 C 92.715 134.515, 91.486 134, 87.568 134 C 73.122 134, 61.006 149.178, 67.816 158.742 L 69.832 161.573 64.462 166.769 C 55.768 175.179, 55.075 181.783, 62.003 190.187 C 65.901 194.917, 72.359 198, 78.365 198 C 83.209 198, 86.183 196.851, 92.579 192.511 C 96.676 189.731, 97.864 190.018, 102.833 194.987 C 106.206 198.360, 107.617 198.605, 112.329 196.636 C 116.828 194.756, 120.661 189.918, 125.090 180.529 L 128.850 172.558 128.307 178.551 C 127.583 186.539, 129.495 195.659, 132.196 197.105 C 136.213 199.255, 141.816 193.009, 146.704 180.933 C 148.242 177.133, 149.838 174.019, 150.250 174.012 C 150.662 174.006, 151.003 176.363, 151.006 179.250 C 151.018 190.621, 154.682 196.380, 162.667 197.577 C 168.882 198.509, 172.925 197.130, 174.929 193.393 L 176.590 190.295 180.045 193.181 C 181.945 194.768, 185.225 196.584, 187.332 197.216 C 190.597 198.196, 191.673 198.092, 194.594 196.519 C 200.005 193.605, 205.537 184.092, 210.599 169 C 212.099 164.525, 212.514 163.966, 212.823 166 C 217.701 198.050, 217.310 196.391, 220.223 197.412 C 226.490 199.610, 231.546 192.746, 232.991 180.079 C 234.743 164.720, 238.369 156.170, 246.252 148.813 C 250.845 144.526, 251.219 143.842, 250.624 140.813 C 249.394 134.552, 243.305 132.983, 238.741 137.750 C 234.914 141.746, 232.118 148.777, 229.553 160.855 L 227.293 171.500 226.114 167.500 C 225.466 165.300, 224.656 157.969, 224.314 151.209 C 223.705 139.180, 223.630 138.867, 220.769 136.459 C 217.143 133.408, 214.951 133.354, 212.250 136.250 C 211.082 137.501, 206.517 148.931, 201.964 162 C 197.462 174.925, 193.638 185.652, 193.467 185.838 C 193.297 186.024, 191.841 185.203, 190.232 184.013 C 188.623 182.824, 185.499 181.608, 183.290 181.312 C 179.987 180.869, 179.013 181.144, 177.813 182.857 C 176.090 185.317, 170.916 186.005, 168.600 184.083 C 166.059 181.974, 166.640 174.244, 170.512 158.647 C 172.443 150.866, 174.131 142.025, 174.262 139 C 174.488 133.774, 174.373 133.485, 171.947 133.203 C 170.320 133.013, 168.103 133.931, 165.831 135.737 M 269.030 135.583 C 264.281 137.643, 262.175 139.726, 259.509 145 C 256.444 151.062, 255.009 158.590, 254.674 170.356 L 254.395 180.169 249.448 182.624 C 243.507 185.571, 240 189.245, 240 192.521 C 240 197.800, 246.872 198.067, 253.603 193.048 L 257.409 190.210 260.508 192.574 C 270.836 200.451, 279.651 199.527, 288.795 189.607 C 293.201 184.826, 293.787 183.187, 291.800 181.200 C 289.973 179.373, 287.872 179.752, 285.055 182.417 C 281.511 185.770, 274.914 186.490, 268.500 184.224 C 265.414 183.134, 263.612 181.939, 263.792 181.103 C 263.952 180.358, 265.161 175.418, 266.477 170.124 C 267.793 164.831, 269.176 157.800, 269.551 154.500 C 270.638 144.935, 275.620 141.159, 279.927 146.635 C 282.535 149.950, 282.530 151.210, 279.898 153.593 C 277.247 155.992, 275 160.284, 275 162.950 C 275 164.704, 275.631 165, 279.365 165 C 284.546 165, 288.572 162.269, 290.621 157.364 C 293.616 150.197, 291.727 142.601, 285.614 137.234 C 282.552 134.546, 281.135 134.007, 277.215 134.039 C 274.622 134.061, 270.938 134.756, 269.030 135.583 M 755.768 152.725 C 757.565 152.947, 760.265 152.943, 761.768 152.715 C 763.271 152.486, 761.800 152.304, 758.500 152.310 C 755.200 152.315, 753.971 152.502, 755.768 152.725 M 478.280 154.736 C 480.909 154.943, 484.959 154.940, 487.280 154.731 C 489.601 154.521, 487.450 154.352, 482.500 154.355 C 477.550 154.358, 475.651 154.530, 478.280 154.736 M 851.136 165.277 L 851 168.055 865.168 167.777 C 875.671 167.572, 879.402 167.170, 879.593 166.225 C 879.734 165.524, 879.621 165.411, 879.342 165.975 C 879.032 166.598, 873.604 167, 865.486 167 C 852.440 167, 852.129 166.949, 851.706 164.750 C 851.338 162.840, 851.252 162.919, 851.136 165.277 M 422.250 164.748 C 431.462 164.913, 446.538 164.913, 455.750 164.748 C 464.962 164.583, 457.425 164.448, 439 164.448 C 420.575 164.448, 413.038 164.583, 422.250 164.748 M 885.252 166 C 885.536 167.055, 887.116 167.532, 890.578 167.608 L 895.500 167.715 891.016 167.289 C 888.550 167.054, 886.154 166.331, 885.690 165.681 C 885.108 164.865, 884.973 164.963, 885.252 166 M 636.986 190.250 C 649.514 203.023, 651 204.453, 651 203.736 C 651 203.591, 644.813 197.403, 637.250 189.986 L 623.500 176.500 636.986 190.250 M 659 193.500 C 661.987 196.525, 664.657 199, 664.932 199 C 665.207 199, 662.987 196.525, 660 193.500 C 657.013 190.475, 654.343 188, 654.068 188 C 653.793 188, 656.013 190.475, 659 193.500 M 513 192.563 C 516.397 193.201, 517.035 195.629, 513.985 196.314 C 512.308 196.690, 512.350 196.744, 514.235 196.633 C 515.789 196.542, 516.500 195.872, 516.500 194.500 C 516.500 192.962, 515.750 192.442, 513.250 192.250 C 510.046 192.004, 510.042 192.008, 513 192.563 M 900.200 204.200 C 898.264 206.136, 898.800 207, 901.941 207 C 905.285 207, 906.790 205.386, 905.054 203.663 C 904.160 202.776, 904.040 202.916, 904.548 204.250 C 905.081 205.652, 904.671 206, 902.485 206 C 900.172 206, 899.945 205.771, 901 204.500 C 902.485 202.711, 901.906 202.494, 900.200 204.200 M 898.654 209.750 C 898.400 210.162, 900.285 210.366, 902.845 210.201 C 910.148 209.732, 911.034 209.243, 904.809 209.116 C 901.679 209.052, 898.909 209.338, 898.654 209.750 M 819.750 216.732 C 822.087 216.943, 825.913 216.943, 828.250 216.732 C 830.587 216.522, 828.675 216.349, 824 216.349 C 819.325 216.349, 817.413 216.522, 819.750 216.732 M 111.250 218.750 C 146.313 218.896, 203.688 218.896, 238.750 218.750 C 273.813 218.604, 245.125 218.485, 175 218.485 C 104.875 218.485, 76.188 218.604, 111.250 218.750 M 814.776 283.125 C 816.898 283.738, 818.659 283.717, 819.776 283.066 C 821.089 282.300, 820.308 282.075, 816.500 282.121 C 811.682 282.178, 811.619 282.215, 814.776 283.125" stroke="none" fill="#f1f6f8" fill-rule="evenodd"/><path d="M 183.923 2.923 C 182.315 4.531, 181 6.578, 181 7.473 C 181 9.944, 183.722 14.679, 185.545 15.379 C 194.100 18.662, 200.936 8.845, 194.545 2.455 C 191.243 -0.848, 187.530 -0.684, 183.923 2.923 M 129.189 10.039 C 125.200 13.755, 126.610 20.768, 131.778 22.908 C 137.524 25.288, 143.834 20.074, 142.509 14.042 C 141.238 8.254, 133.576 5.951, 129.189 10.039 M 234.635 20.073 C 229.002 24.504, 232.633 34, 239.961 34 C 246.601 34, 249.747 24.760, 244.611 20.342 C 241.250 17.450, 238.077 17.365, 234.635 20.073 M 667.015 25.729 C 667.036 30.709, 667.643 31.412, 673.250 32.954 C 679.129 34.570, 679.364 36.355, 674.870 45.258 C 670.995 52.935, 658.647 65.383, 644.207 76.173 C 636.464 81.958, 634.376 83.979, 635.719 84.386 C 639.160 85.431, 650.602 86.887, 660.700 87.566 L 670.900 88.251 670.448 90.875 C 668.259 103.592, 663.900 145.525, 664.327 149.756 C 665.004 156.475, 668.537 162.774, 673 165.219 C 675.803 166.755, 677.937 167.054, 683.720 166.721 C 693.093 166.180, 702.211 161.819, 710.134 154.086 C 715.228 149.114, 718.189 143.855, 716.720 142.386 C 716.433 142.100, 713.493 143.924, 710.185 146.439 C 699.238 154.765, 689.206 157.991, 684.761 154.616 C 681.624 152.234, 680 146.481, 680.008 137.782 C 680.016 128.031, 680.931 121.603, 685.111 101.898 L 688.209 87.296 700.262 86.648 C 706.890 86.292, 716.856 85.992, 722.407 85.982 C 731.725 85.965, 732.917 85.734, 737.936 82.968 C 740.925 81.320, 743.715 80.315, 744.136 80.736 C 744.556 81.156, 746.942 84.425, 749.438 88 L 753.976 94.500 751.238 96.406 C 749.732 97.455, 745.284 101.578, 741.354 105.569 C 735.961 111.046, 733.673 114.258, 732.022 118.663 C 728.123 129.071, 726.739 136.103, 727.232 142.992 C 728.007 153.828, 732.563 159.939, 741.903 162.669 C 754.749 166.424, 773.889 159.299, 791.188 144.322 L 798.500 137.992 799.208 140.746 C 799.597 142.261, 800.179 145.581, 800.500 148.124 C 801.309 154.520, 804.837 161.039, 809 163.831 C 811.833 165.731, 813.473 166.100, 817.605 165.769 C 827.428 164.981, 845.510 154.316, 853.448 144.628 C 856.590 140.795, 857.029 139.740, 855.999 138.499 C 853.724 135.758, 851.398 136.933, 843.360 144.885 C 836.289 151.880, 834.765 152.909, 829.844 154.010 C 823.374 155.458, 820.068 154.377, 816.590 149.675 C 814.760 147.202, 814.502 145.457, 814.516 135.675 C 814.538 120.528, 814.787 119.874, 822.251 115.384 C 844.770 101.838, 855.083 89.919, 853.606 79.144 C 852.727 72.730, 849.267 66.134, 845.613 63.906 C 841.471 61.380, 834.730 61.468, 829.250 64.121 C 826.841 65.287, 822.051 69.060, 818.607 72.504 C 808.003 83.109, 801.191 98.958, 799.431 117.125 C 798.570 126.012, 796.324 129.735, 786.133 139.170 C 775.113 149.373, 762.117 154.752, 753.631 152.622 C 750.390 151.809, 745.298 147.477, 743.503 144.006 C 741.042 139.247, 739.891 128.971, 741.083 122.404 C 743.714 107.907, 754.503 98.980, 771.359 97.354 C 778.723 96.644, 782.249 94.746, 781.811 91.728 C 781.582 90.144, 780.513 89.377, 777.734 88.803 C 768.872 86.971, 761.379 80.624, 755.647 70.094 L 752.864 64.979 757.306 59.739 C 759.750 56.858, 762.061 53.487, 762.442 52.250 C 763.516 48.762, 762.207 46, 759.480 46 C 754.832 46, 752.507 47.958, 750.204 53.809 C 746.740 62.607, 741.708 68.762, 735.685 71.566 C 730.744 73.867, 729.549 73.981, 710.250 73.990 L 690 74 690 71.293 C 690 66.326, 693.125 37.527, 693.872 35.604 C 694.315 34.467, 696.987 32.865, 700.555 31.600 C 706.279 29.570, 706.500 29.362, 706.500 25.996 L 706.500 22.500 686.750 22.229 L 667 21.958 667.015 25.729 M 89.354 34.766 C 86.140 35.284, 83.600 38.679, 83.600 42.456 C 83.600 48.354, 88.426 51.793, 93.984 49.856 C 100.738 47.501, 100.936 37.468, 94.271 35.315 C 92.747 34.823, 90.534 34.576, 89.354 34.766 M 406 41.500 C 406 43.816, 406.350 44, 410.750 44.002 C 416.224 44.003, 421.543 46.387, 424.214 50.035 C 425.964 52.426, 426.067 55.380, 426.019 101.974 C 425.973 146.413, 425.802 151.561, 424.320 153.199 C 422.386 155.336, 414.062 158, 409.318 158 C 406.298 158, 406 158.269, 406 161 L 406 164 456.928 164 L 507.856 164 509.852 158.667 C 512.764 150.883, 514.815 143.189, 515.493 137.500 L 516.089 132.500 513.294 136 C 506.445 144.578, 499.616 150.918, 495.191 152.805 C 491.060 154.566, 487.784 154.847, 467.750 155.154 L 445 155.504 445 129.830 L 445 104.156 464.250 103.805 C 485.610 103.415, 487.719 103.846, 491.016 109.266 C 492.075 111.009, 493.232 114.362, 493.585 116.717 C 494.269 121.279, 495.756 122.101, 498.449 119.409 C 499.820 118.037, 500.003 114.956, 499.770 97.159 L 499.500 76.500 496.391 76.197 C 493.332 75.899, 493.262 75.993, 492.095 81.925 C 490.815 88.429, 487.390 93.521, 483.232 95.102 C 481.810 95.643, 473.308 95.750, 462.894 95.359 L 445 94.688 445 71.844 L 445 49 466.900 49 L 488.799 49 494.123 53 C 498.901 56.591, 503.298 61.364, 506.691 66.646 C 507.644 68.129, 507.894 65.549, 507.941 53.750 L 508 39 457 39 L 406 39 406 41.500 M 280.174 54.314 C 277.193 57.488, 277.316 62.407, 280.455 65.545 C 283.795 68.886, 287.468 68.686, 291.194 64.960 C 293.738 62.416, 294.133 61.396, 293.614 58.710 C 292.362 52.230, 284.537 49.671, 280.174 54.314 M 666.490 65.637 L 655.500 76.126 662.500 75.570 C 666.350 75.264, 670.642 75.011, 672.038 75.007 C 674.465 75, 674.650 74.575, 676.254 65.299 C 677.177 59.964, 677.830 55.497, 677.706 55.373 C 677.582 55.249, 672.535 59.867, 666.490 65.637 M 608.487 59.746 C 599.948 62.789, 594.158 66.842, 583.200 77.447 L 572.635 87.672 561.659 73.836 C 555.622 66.226, 550.019 60, 549.208 60 C 541.922 60, 532.671 67.366, 527.463 77.315 C 524.790 82.418, 524.661 83.090, 526.078 84.506 C 528.319 86.748, 531.690 85.198, 534.921 80.439 C 536.386 78.283, 538.825 76.082, 540.343 75.548 C 542.883 74.655, 543.436 74.967, 547.301 79.469 C 554.647 88.026, 562.238 98.389, 563.701 101.858 L 565.117 105.216 550.698 129.358 L 536.280 153.500 526.640 153.786 L 517 154.072 517 159.536 L 517 165 543.500 165 C 559.113 165, 570 164.619, 570 164.073 C 570 162.607, 562.829 157.074, 559.247 155.775 C 555.294 154.342, 555.328 154.149, 561.969 140.500 C 566.825 130.518, 573.481 120.620, 574.951 121.196 C 575.378 121.363, 581.270 128.025, 588.045 136 C 625.661 180.282, 664.954 218.876, 695.500 241.545 C 723.598 262.398, 750.940 275.457, 778.251 281.069 C 788.636 283.203, 819.227 284.925, 814 283.081 C 812.625 282.596, 809.442 282.155, 806.926 282.100 C 791.366 281.761, 763.486 273.567, 745.108 263.933 C 714.529 247.902, 693.239 230.047, 652.184 186 C 626.841 158.810, 590.496 115.450, 585.750 106.742 C 579.243 94.804, 593.217 75.107, 611.034 71.104 C 613.351 70.583, 615.866 70.395, 616.623 70.686 C 620.863 72.313, 614.777 80.563, 606.087 84.968 C 603.014 86.525, 599.475 88.900, 598.222 90.244 C 593.603 95.201, 598.804 98.492, 606.569 95.527 C 616.901 91.581, 624.977 83.863, 628.542 74.529 C 633.045 62.738, 622.305 54.822, 608.487 59.746 M 946.915 65.406 C 943.843 66.683, 938.839 69.321, 935.795 71.268 L 930.259 74.809 929.100 70.941 C 925.926 60.346, 915.434 61.550, 895.129 74.837 L 892.759 76.388 893.493 72.039 L 894.228 67.691 887.363 68.266 C 879.232 68.948, 870.821 71.898, 865.012 76.106 C 862.703 77.779, 860.972 79.305, 861.165 79.499 C 861.358 79.692, 864.213 79.216, 867.508 78.441 C 875.101 76.655, 875.520 76.663, 877.485 78.627 C 878.782 79.925, 878.979 81.394, 878.453 85.877 C 876.980 98.457, 870.972 125.658, 862.911 156.250 C 862.078 159.413, 861.498 160.002, 859.211 160.014 C 853.773 160.041, 852 161.050, 852 164.117 L 852 167 865.393 167 C 879.615 167, 880 166.866, 880 161.918 C 880 160.454, 879.291 160, 877 160 C 875.350 160, 874 159.744, 874 159.431 C 874 159.118, 875.130 154.403, 876.512 148.952 C 877.894 143.501, 881.058 129.695, 883.544 118.271 C 886.030 106.847, 888.800 95.552, 889.698 93.171 C 893.685 82.607, 900.759 77, 910.098 77 L 915.276 77 914.600 84.456 C 913.771 93.606, 908.840 113.914, 901.963 136.500 C 899.116 145.850, 896.370 154.939, 895.861 156.698 C 895.071 159.424, 894.314 160.017, 890.717 160.724 C 887.068 161.441, 886.456 161.935, 886.173 164.390 L 885.845 167.226 900.351 166.851 C 908.329 166.645, 915.135 166.199, 915.474 165.860 C 915.813 165.521, 916.182 163.951, 916.295 162.372 C 916.478 159.812, 916.147 159.466, 913.250 159.187 C 911.462 159.014, 910 158.424, 910 157.875 C 910 157.325, 913.557 142.789, 917.904 125.572 C 926.437 91.774, 928.952 85.143, 935.538 79.072 C 940.278 74.703, 946.909 72.850, 949.654 75.128 C 952.360 77.374, 950.687 86.895, 943.526 110 C 939.861 121.825, 935.951 135.775, 934.838 141 C 932.521 151.871, 932.776 161.483, 935.492 165.629 C 937.101 168.083, 937.596 168.224, 942.930 167.740 C 950.370 167.065, 956.205 164.062, 963.040 157.388 L 968.580 151.978 972.040 157.211 C 978.334 166.729, 986.982 168.948, 998 163.870 C 1010.494 158.113, 1029.024 138, 1021.835 138 C 1021.259 138, 1017.451 141.116, 1013.373 144.926 C 1004.186 153.505, 998.845 155.869, 992.767 154.048 C 983.585 151.297, 979.272 143.084, 980.402 130.500 C 981.177 121.863, 982.408 120.075, 992.450 113 C 996.744 109.975, 1003.461 105.244, 1007.378 102.487 C 1022.840 91.604, 1026.344 77.108, 1016.010 66.775 C 1012.566 63.331, 1011.757 63, 1006.777 63 C 994.826 63, 981.738 73.560, 973.936 89.500 C 967.936 101.758, 966.787 107.275, 966.386 125.767 C 965.965 145.203, 964.875 148.073, 955.505 154.432 C 948.019 159.512, 944.374 157.264, 945.326 148.153 C 945.964 142.049, 951.275 125.291, 954.724 118.500 C 960.623 106.887, 967.978 82.605, 967.993 74.700 C 968.001 70.266, 965.794 65.495, 963.055 64.030 C 959.890 62.336, 952.859 62.935, 946.915 65.406 M 996.921 74.482 C 991.718 77.312, 986.509 88.111, 983.624 102.051 C 982.784 106.109, 982.276 109.610, 982.496 109.829 C 983.473 110.806, 992.563 105.338, 997.572 100.760 C 1007.945 91.279, 1011.351 81.197, 1006.076 75.581 C 1003.374 72.705, 1000.765 72.392, 996.921 74.482 M 829.071 75.752 C 822.334 79.187, 817.004 88.947, 815.445 100.705 C 814.843 105.240, 815.001 105.930, 816.870 106.930 C 818.549 107.829, 819.754 107.656, 822.864 106.069 C 827.478 103.716, 838.791 92.679, 840.089 89.266 C 841.903 84.495, 841.173 80.020, 838.077 76.923 C 834.674 73.520, 833.696 73.393, 829.071 75.752 M 54.455 77.455 C 50.154 81.755, 51.928 89.012, 57.630 90.443 C 62.915 91.770, 68 87.584, 68 81.907 C 68 78.824, 63.571 75, 60 75 C 58.052 75, 56.002 75.907, 54.455 77.455 M 40.109 114.581 C 20.816 119.770, 7.272 133.083, 2.062 151.980 C -5.575 179.682, 10.694 208.110, 38.932 216.405 C 43.782 217.829, 58.341 218, 174.971 218 C 289.024 218, 306.325 217.806, 311.458 216.469 C 337.370 209.720, 354.447 183.365, 349.998 156.991 C 346.614 136.924, 330.593 119.685, 310.540 114.532 C 301.818 112.290, 48.455 112.337, 40.109 114.581 M 165.831 135.737 C 161.428 139.236, 155.529 145.999, 149.453 154.514 C 146.907 158.081, 144.724 161, 144.600 161 C 144.477 161, 144.400 156.387, 144.429 150.750 C 144.469 142.773, 144.089 139.779, 142.715 137.250 C 139.291 130.950, 133.477 134.149, 127.757 145.482 C 124.803 151.333, 116 176.693, 116 179.351 C 116 180.911, 112.843 184, 111.248 184 C 110.646 184, 108.804 182.650, 107.154 181 C 102.431 176.277, 94.784 177.252, 87.922 183.452 C 83.364 187.570, 80.244 187.932, 75.355 184.911 C 70.852 182.127, 69.722 179.865, 71.063 176.315 C 72.608 172.228, 77.009 168, 79.719 168 C 83.271 168, 89 165.295, 89 163.618 C 89 162.802, 86.975 160.475, 84.500 158.446 C 80.645 155.288, 80 154.230, 80 151.068 C 80 146.937, 83.142 142.688, 85.816 143.203 C 86.714 143.376, 88.005 144.631, 88.683 145.992 C 91.358 151.357, 97.221 152.804, 99.148 148.574 C 100.701 145.165, 99.441 141.241, 95.541 137.341 C 92.715 134.515, 91.486 134, 87.568 134 C 73.122 134, 61.006 149.178, 67.816 158.742 L 69.832 161.573 64.462 166.769 C 55.768 175.179, 55.075 181.783, 62.003 190.187 C 65.901 194.917, 72.359 198, 78.365 198 C 83.209 198, 86.183 196.851, 92.579 192.511 C 96.676 189.731, 97.864 190.018, 102.833 194.987 C 106.206 198.360, 107.617 198.605, 112.329 196.636 C 116.828 194.756, 120.661 189.918, 125.090 180.529 L 128.850 172.558 128.307 178.551 C 127.583 186.539, 129.495 195.659, 132.196 197.105 C 136.213 199.255, 141.816 193.009, 146.704 180.933 C 148.242 177.133, 149.838 174.019, 150.250 174.012 C 150.662 174.006, 151.003 176.363, 151.006 179.250 C 151.018 190.621, 154.682 196.380, 162.667 197.577 C 168.882 198.509, 172.925 197.130, 174.929 193.393 L 176.590 190.295 180.045 193.181 C 181.945 194.768, 185.225 196.584, 187.332 197.216 C 190.597 198.196, 191.673 198.092, 194.594 196.519 C 200.005 193.605, 205.537 184.092, 210.599 169 C 212.099 164.525, 212.514 163.966, 212.823 166 C 217.701 198.050, 217.310 196.391, 220.223 197.412 C 226.490 199.610, 231.546 192.746, 232.991 180.079 C 234.743 164.720, 238.369 156.170, 246.252 148.813 C 250.845 144.526, 251.219 143.842, 250.624 140.813 C 249.394 134.552, 243.305 132.983, 238.741 137.750 C 234.914 141.746, 232.118 148.777, 229.553 160.855 L 227.293 171.500 226.114 167.500 C 225.466 165.300, 224.656 157.969, 224.314 151.209 C 223.705 139.180, 223.630 138.867, 220.769 136.459 C 217.143 133.408, 214.951 133.354, 212.250 136.250 C 211.082 137.501, 206.517 148.931, 201.964 162 C 197.462 174.925, 193.638 185.652, 193.467 185.838 C 193.297 186.024, 191.841 185.203, 190.232 184.013 C 188.623 182.824, 185.499 181.608, 183.290 181.312 C 179.987 180.869, 179.013 181.144, 177.813 182.857 C 176.090 185.317, 170.916 186.005, 168.600 184.083 C 166.059 181.974, 166.640 174.244, 170.512 158.647 C 172.443 150.866, 174.131 142.025, 174.262 139 C 174.488 133.774, 174.373 133.485, 171.947 133.203 C 170.320 133.013, 168.103 133.931, 165.831 135.737 M 269.030 135.583 C 264.281 137.643, 262.175 139.726, 259.509 145 C 256.444 151.062, 255.009 158.590, 254.674 170.356 L 254.395 180.169 249.448 182.624 C 243.507 185.571, 240 189.245, 240 192.521 C 240 197.800, 246.872 198.067, 253.603 193.048 L 257.409 190.210 260.508 192.574 C 270.836 200.451, 279.651 199.527, 288.795 189.607 C 293.201 184.826, 293.787 183.187, 291.800 181.200 C 289.973 179.373, 287.872 179.752, 285.055 182.417 C 281.511 185.770, 274.914 186.490, 268.500 184.224 C 265.414 183.134, 263.612 181.939, 263.792 181.103 C 263.952 180.358, 265.161 175.418, 266.477 170.124 C 267.793 164.831, 269.176 157.800, 269.551 154.500 C 270.638 144.935, 275.620 141.159, 279.927 146.635 C 282.535 149.950, 282.530 151.210, 279.898 153.593 C 277.247 155.992, 275 160.284, 275 162.950 C 275 164.704, 275.631 165, 279.365 165 C 284.546 165, 288.572 162.269, 290.621 157.364 C 293.616 150.197, 291.727 142.601, 285.614 137.234 C 282.552 134.546, 281.135 134.007, 277.215 134.039 C 274.622 134.061, 270.938 134.756, 269.030 135.583 M 420.232 203.750 C 417.539 216.709, 417.556 216, 419.929 216 C 421.479 216, 422.081 214.871, 422.992 210.250 C 425.116 199.485, 425.836 198.870, 425.921 207.750 C 425.999 215.896, 426.032 216, 428.538 216 C 430.744 216, 431.549 214.951, 434.689 207.984 C 436.676 203.575, 438.425 200.092, 438.577 200.243 C 438.728 200.395, 438.226 203.440, 437.461 207.010 C 435.630 215.555, 435.657 216, 438 216 C 439.100 216, 440 215.887, 440 215.748 C 440 215.609, 440.900 210.773, 442 205 C 443.100 199.227, 444 194.166, 444 193.752 C 444 193.338, 442.488 193, 440.640 193 C 437.422 193, 437.128 193.329, 433.711 200.750 L 430.143 208.500 430.060 204.500 C 430.015 202.300, 429.699 198.813, 429.358 196.750 C 428.795 193.346, 428.449 193, 425.602 193 L 422.467 193 420.232 203.750 M 507.436 196.500 C 506.631 198.425, 505.529 200, 504.987 200 C 503.700 200, 503.702 202.733, 504.990 203.167 C 505.620 203.379, 505.655 204.772, 505.087 207 C 502.780 216.045, 502.779 216, 505.368 216 C 507.536 216, 507.894 215.359, 509 209.500 C 509.994 204.230, 510.584 203, 512.113 203 C 514.346 203, 514.651 200.464, 512.517 199.645 C 510.490 198.867, 511.741 196, 514.107 196 C 515.148 196, 516 195.325, 516 194.500 C 516 193.448, 514.939 193, 512.449 193 C 509.336 193, 508.718 193.432, 507.436 196.500 M 597.607 194.582 C 596.712 196.915, 596.778 197, 599.500 197 C 601.333 197, 602 196.467, 602 195 C 602 192.568, 598.507 192.235, 597.607 194.582 M 699.990 198.750 C 699.357 201.912, 698.260 207.088, 697.553 210.250 C 696.278 215.953, 696.286 216, 698.563 216 C 700.559 216, 701.005 215.252, 701.988 210.250 C 703.793 201.064, 703.954 201.018, 707.218 208.750 C 709.751 214.748, 710.675 216, 712.569 216 C 714.557 216, 715.009 215.243, 716.002 210.250 C 716.632 207.088, 717.561 202.925, 718.068 201 C 719.549 195.372, 719.257 193, 717.083 193 C 715.589 193, 714.926 194.116, 714.083 198.049 C 713.487 200.826, 713 203.725, 713 204.490 C 713 208.334, 710.885 206.257, 708.432 200.004 C 706.153 194.195, 705.297 193, 703.413 193 C 701.448 193, 700.986 193.776, 699.990 198.750 M 724.667 193.667 C 723.125 195.208, 724.083 197.127, 726.240 196.820 C 729.071 196.416, 729.965 193, 727.240 193 C 726.191 193, 725.033 193.300, 724.667 193.667 M 784 195 C 784 197.329, 787.475 197.810, 788.324 195.598 C 788.998 193.841, 788.193 193, 785.833 193 C 784.667 193, 784 193.727, 784 195 M 820.478 194.250 C 820.053 195.409, 816 214.740, 816 215.610 C 816 215.825, 819.825 216, 824.500 216 C 831.389 216, 833 215.716, 833 214.500 C 833 213.404, 831.854 212.996, 828.750 212.985 C 821.703 212.959, 821.437 212.460, 823.345 202.845 C 824.256 198.255, 825.001 194.162, 825.001 193.750 C 824.999 192.477, 820.965 192.923, 820.478 194.250 M 840 195 C 840 197.432, 843.493 197.765, 844.393 195.418 C 845.288 193.085, 845.222 193, 842.500 193 C 840.667 193, 840 193.533, 840 195 M 878 195 C 878 197.432, 881.493 197.765, 882.393 195.418 C 883.288 193.085, 883.222 193, 880.500 193 C 878.667 193, 878 193.533, 878 195 M 927.677 193.750 C 927.434 194.162, 926.932 195.914, 926.562 197.642 C 925.922 200.629, 925.746 200.731, 923.015 199.699 C 917.497 197.617, 912 202.991, 912 210.468 C 912 214.200, 915.553 217.354, 918.848 216.544 C 920.307 216.186, 922.706 215.922, 924.179 215.957 C 925.905 215.998, 927.049 215.395, 927.394 214.260 C 928.016 212.213, 932 194.267, 932 193.511 C 932 192.704, 928.167 192.916, 927.677 193.750 M 554.467 197.467 C 550.960 200.974, 550.249 202.560, 551.914 203.167 C 552.457 203.365, 552.404 205.630, 551.784 208.740 C 550.590 214.728, 551.645 217, 555.622 217 C 557.333 217, 558 216.439, 558 215 C 558 213.900, 557.492 213, 556.872 213 C 554.881 213, 556.838 204.692, 559.289 202.738 C 561.254 201.172, 561.320 200.868, 559.884 200.013 C 558.824 199.382, 558.434 198.181, 558.750 196.525 C 559.393 193.162, 558.596 193.338, 554.467 197.467 M 887.467 197.467 C 883.960 200.974, 883.249 202.560, 884.914 203.167 C 885.457 203.365, 885.404 205.630, 884.784 208.740 C 883.590 214.728, 884.645 217, 888.622 217 C 890.299 217, 891 216.435, 891 215.083 C 891 214.029, 890.508 213.003, 889.906 212.802 C 888.301 212.267, 889.860 203, 891.555 203 C 893.609 203, 894.459 200.836, 892.774 199.894 C 891.813 199.356, 891.442 198.136, 891.750 196.525 C 892.393 193.162, 891.596 193.338, 887.467 197.467 M 450.079 200.265 C 446.361 202.162, 446.048 204.445, 449.619 203.610 C 454.729 202.416, 455.418 202.473, 455.758 204.112 C 456.010 205.323, 455.077 205.860, 452.008 206.272 C 446.843 206.965, 445 208.494, 445 212.087 C 445 215.570, 448.028 217.492, 451.843 216.431 C 453.304 216.024, 455.431 215.783, 456.568 215.894 C 458.370 216.070, 458.798 215.222, 459.887 209.312 C 461.088 202.791, 461.052 202.461, 458.957 200.764 C 456.411 198.702, 453.466 198.537, 450.079 200.265 M 473.631 199.702 C 473.245 200.088, 471.444 200.304, 469.628 200.182 C 466.377 199.963, 466.309 200.046, 465.078 205.730 C 464.390 208.903, 463.593 212.512, 463.306 213.750 C 462.871 215.622, 463.203 216, 465.278 216 C 467.478 216, 467.855 215.454, 468.467 211.374 C 469.256 206.111, 473.360 200.960, 475.254 202.854 C 476.054 203.654, 476.033 205.345, 475.177 209.053 C 473.605 215.863, 473.654 216.190, 476.179 215.820 C 477.920 215.564, 478.615 214.395, 479.637 210 C 481.297 202.857, 481.288 202.431, 479.429 200.571 C 477.791 198.934, 474.841 198.492, 473.631 199.702 M 517.861 200.914 C 514.816 203.382, 516.182 204.747, 520.185 203.236 C 523.586 201.953, 525 202.341, 525 204.559 C 525 205.521, 523.910 206, 521.723 206 C 517.142 206, 514 208.450, 514 212.022 C 514 215.443, 516.950 217.486, 520.288 216.374 C 521.504 215.969, 523.689 215.748, 525.142 215.883 C 527.719 216.122, 527.802 215.951, 528.511 208.888 C 529.148 202.544, 529.014 201.484, 527.428 200.324 C 524.837 198.429, 520.603 198.690, 517.861 200.914 M 535.981 201.750 C 531.595 205.704, 530.908 210.999, 534.336 214.427 C 535.751 215.842, 537.994 217, 539.320 217 C 541.725 217, 547 213.590, 547 212.034 C 547 210.307, 543.637 210.019, 541.893 211.597 C 538.159 214.976, 535.302 210.042, 538.035 204.934 C 539.101 202.942, 544 202.175, 544 204 C 544 204.550, 544.900 205, 546 205 C 548.668 205, 548.543 202.494, 545.777 200.557 C 542.514 198.271, 539.422 198.648, 535.981 201.750 M 590.631 199.702 C 590.245 200.088, 588.458 200.305, 586.659 200.184 L 583.389 199.964 581.861 207.982 L 580.332 216 582.555 216 C 584.335 216, 584.914 215.253, 585.463 212.250 C 586.349 207.401, 588.488 204.145, 591.552 202.980 C 592.899 202.468, 594 201.363, 594 200.525 C 594 198.962, 591.888 198.446, 590.631 199.702 M 612.631 199.702 C 612.245 200.088, 610.458 200.305, 608.659 200.184 L 605.389 199.964 603.861 207.982 L 602.332 216 604.507 216 C 606.327 216, 606.882 215.104, 607.911 210.508 C 609.114 205.130, 612.169 201.368, 614.275 202.670 C 615.189 203.235, 614.557 211.385, 613.357 214.512 C 612.945 215.586, 613.486 216, 615.302 216 C 617.630 216, 617.911 215.480, 619.063 209.037 C 620.066 203.422, 620.060 201.777, 619.031 200.537 C 617.719 198.956, 613.878 198.455, 612.631 199.702 M 627.364 200.170 C 624.611 201.503, 623 205.103, 623 209.925 C 623 214.648, 624.875 216.350, 629.486 215.812 C 633.098 215.390, 633.438 215.695, 632.393 218.418 C 631.631 220.404, 629.064 220.436, 625.364 218.506 C 622.806 217.171, 622.464 217.176, 622.167 218.554 C 621.559 221.375, 624.044 223, 628.967 223 C 635.367 223, 636.699 221.236, 638.879 209.877 C 640.657 200.606, 640.655 200.496, 638.702 200.163 C 637.615 199.977, 636.411 200.336, 636.025 200.960 C 635.531 201.759, 634.944 201.638, 634.039 200.547 C 632.579 198.788, 630.464 198.668, 627.364 200.170 M 734.315 200.007 C 731.408 201.178, 729.885 204.244, 729.819 209.058 C 729.744 214.451, 731.454 216.262, 736.194 215.810 C 740.438 215.405, 740.404 215.377, 738.965 218.066 C 737.869 220.113, 734.540 220.682, 733.500 219 C 732.596 217.538, 729 217.777, 729 219.300 C 729 221.694, 731.365 223, 735.700 223 C 742.618 223, 744.268 220.221, 746.532 204.750 C 747.174 200.362, 747.066 200, 745.114 200 C 743.951 200, 743 200.476, 743 201.057 C 743 201.649, 742.023 201.429, 740.777 200.557 C 738.289 198.814, 737.454 198.743, 734.315 200.007 M 754.249 200.032 C 750.843 201.401, 748.462 207.134, 749.622 211.176 C 751.274 216.937, 757.304 218.523, 762.500 214.562 C 764.217 213.254, 764.289 212.900, 763.010 212.061 C 761.977 211.385, 760.805 211.553, 759.193 212.609 C 756.641 214.281, 754 213.109, 754 210.303 C 754 209.183, 755.197 208.916, 759.250 209.136 L 764.500 209.420 764.805 205.805 C 765.273 200.244, 760.380 197.567, 754.249 200.032 M 776.185 199.864 C 775.462 200.323, 773.796 200.492, 772.481 200.241 C 770.511 199.865, 769.979 200.285, 769.449 202.642 C 769.095 204.214, 768.402 207.075, 767.909 209 C 766.523 214.404, 766.768 216, 768.981 216 C 770.327 216, 771.158 215.119, 771.574 213.250 C 772.816 207.667, 773.270 206.462, 774.773 204.750 C 775.618 203.787, 777.140 203, 778.155 203 C 779.333 203, 780 202.277, 780 201 C 780 198.911, 778.427 198.443, 776.185 199.864 M 792.861 200.914 C 789.943 203.279, 791.122 204.770, 794.809 203.378 C 797.964 202.187, 800 202.609, 800 204.452 C 800 205.197, 798.303 205.964, 795.961 206.278 C 790.874 206.961, 789 208.501, 789 212 C 789 215.687, 791.236 217.427, 794.737 216.463 C 796.257 216.044, 798.689 215.798, 800.142 215.915 C 802.715 216.123, 802.803 215.939, 803.511 208.888 C 804.148 202.544, 804.014 201.484, 802.428 200.324 C 799.837 198.429, 795.603 198.690, 792.861 200.914 M 854.185 199.864 C 853.462 200.323, 851.805 200.494, 850.502 200.245 C 848.462 199.855, 847.991 200.328, 847.107 203.646 C 846.543 205.766, 845.780 209.412, 845.413 211.750 C 844.809 215.591, 844.943 216, 846.805 216 C 848.947 216, 849.443 215.040, 850.563 208.726 C 851.242 204.895, 854.711 201.311, 856.250 202.850 C 856.707 203.307, 856.624 205.666, 856.065 208.091 C 854.572 214.567, 854.729 216, 856.933 216 C 858.943 216, 859.454 214.984, 860.546 208.815 C 861.295 204.583, 864.465 201.065, 866.077 202.677 C 866.784 203.384, 866.662 205.636, 865.688 209.854 L 864.268 216 866.565 216 C 868.567 216, 869.042 215.197, 870.261 209.750 C 871.030 206.313, 871.458 202.708, 871.210 201.739 C 870.583 199.282, 866.465 198.466, 863.730 200.257 C 861.826 201.505, 861.277 201.522, 860.198 200.367 C 858.764 198.831, 856.158 198.613, 854.185 199.864 M 899.302 200.012 C 896.687 201.065, 894 205.871, 894 209.496 C 894 212.758, 898.138 217, 901.320 217 C 902.646 217, 904.981 216.016, 906.510 214.814 C 909.060 212.807, 909.133 212.573, 907.394 211.959 C 906.344 211.589, 904.547 211.913, 903.363 212.687 C 901.504 213.900, 901.014 213.871, 899.603 212.461 C 897.139 209.996, 898.565 209, 904.559 209 C 909.938 209, 910 208.966, 910 206 C 910 200.488, 905.029 197.706, 899.302 200.012 M 485.083 205.049 C 483.017 214.683, 484.344 217.940, 489.737 216.470 C 491.257 216.056, 493.578 215.669, 494.897 215.609 C 497.030 215.512, 497.492 214.677, 499.105 208 C 500.101 203.875, 500.935 200.387, 500.958 200.250 C 500.981 200.113, 499.947 200, 498.659 200 C 496.644 200, 496.151 200.749, 495.113 205.387 C 493.819 211.168, 490.720 215.120, 488.904 213.304 C 487.930 212.330, 488.324 209.684, 490.627 201.750 C 491.014 200.417, 490.543 200, 488.650 200 C 486.475 200, 486.031 200.629, 485.083 205.049 M 563.547 201.738 C 563.180 202.693, 562.622 206.244, 562.306 209.628 C 561.777 215.286, 561.903 215.834, 563.866 216.457 C 565.040 216.830, 567.013 216.796, 568.250 216.381 C 569.487 215.966, 571.487 215.740, 572.694 215.878 C 574.990 216.140, 574.982 216.158, 577.786 204.250 C 578.730 200.243, 578.663 200, 576.606 200 C 574.806 200, 574.081 201.093, 572.462 206.250 C 570.848 211.393, 570.076 212.560, 568.107 212.838 C 565.882 213.153, 565.764 212.943, 566.422 209.838 C 568.385 200.569, 568.375 200, 566.238 200 C 565.125 200, 563.914 200.782, 563.547 201.738 M 595.154 206.467 C 594.499 210.024, 593.698 213.624, 593.374 214.467 C 592.943 215.590, 593.448 216, 595.263 216 C 597.508 216, 597.851 215.415, 598.927 209.750 C 599.580 206.313, 600.344 202.713, 600.624 201.750 C 601.010 200.428, 600.549 200, 598.740 200 C 596.584 200, 596.227 200.643, 595.154 206.467 M 721.987 205.750 C 721.352 208.912, 720.587 212.551, 720.286 213.837 C 719.820 215.830, 720.081 216.124, 722.060 215.837 C 724.079 215.544, 724.600 214.494, 726.072 207.750 L 727.763 200 725.452 200 C 723.440 200, 722.993 200.742, 721.987 205.750 M 782.535 201.250 C 781.831 203.437, 780 213.042, 780 214.549 C 780 216.960, 783.902 216.262, 784.473 213.750 C 787.543 200.233, 787.551 200, 784.969 200 C 783.851 200, 782.756 200.563, 782.535 201.250 M 838.527 202.250 C 835.465 215.736, 835.454 216, 837.981 216 C 839.217 216, 840.154 215.154, 840.473 213.750 C 843.535 200.264, 843.546 200, 841.019 200 C 839.783 200, 838.846 200.846, 838.527 202.250 M 876.422 202.750 C 876.083 204.262, 875.402 207.075, 874.909 209 C 873.527 214.389, 873.769 216, 875.961 216 C 878.021 216, 879.218 212.960, 880.587 204.250 C 881.195 200.382, 881.066 200, 879.147 200 C 877.662 200, 876.856 200.814, 876.422 202.750 M 629.801 203.091 C 627.904 204.153, 626.686 208.435, 627.527 211.085 C 629.046 215.871, 635.872 210.609, 634.619 205.618 C 633.918 202.826, 632.038 201.840, 629.801 203.091 M 736.008 203.992 C 731.819 208.181, 735.128 215.628, 739.548 211.960 C 741.416 210.410, 741.428 204.600, 739.567 203.056 C 738.427 202.109, 737.700 202.300, 736.008 203.992 M 756.165 203.597 C 753.407 205.529, 754.225 207, 758.059 207 C 761.196 207, 762.006 205.080, 759.682 203.151 C 758.709 202.344, 757.787 202.461, 756.165 203.597 M 900.238 204.162 C 898.158 206.242, 898.842 207.142, 902.250 206.813 C 904.333 206.613, 905.500 205.961, 905.500 205 C 905.500 203.100, 901.877 202.523, 900.238 204.162 M 918.238 204.162 C 916.391 206.009, 916.667 211.935, 918.636 212.691 C 921.484 213.783, 923.500 211.587, 923.500 207.391 C 923.500 204.255, 923.110 203.444, 921.488 203.212 C 920.382 203.053, 918.919 203.481, 918.238 204.162 M 450.250 209.662 C 449.563 209.940, 449 210.834, 449 211.650 C 449 213.829, 454.389 212.995, 454.815 210.750 C 455.144 209.013, 453.079 208.521, 450.250 209.662 M 519.250 209.662 C 517.340 210.433, 517.763 213, 519.800 213 C 521.655 213, 524 211.213, 524 209.800 C 524 208.932, 521.258 208.852, 519.250 209.662 M 794.250 209.662 C 792.039 210.554, 792.877 213, 795.393 213 C 797.372 213, 799 211.383, 799 209.418 C 799 208.863, 795.826 209.026, 794.250 209.662 M 75.229 237.669 C 73.686 238.290, 71 243.281, 71 245.527 C 71 248.016, 76.528 253, 79.288 253 C 80.631 253, 82.916 252.067, 84.365 250.927 C 88.087 248, 88.087 242, 84.365 239.073 C 81.877 237.115, 78.062 236.529, 75.229 237.669 M 147 277.500 L 147 292 150 292 L 153 292 153 286 C 153 282.420, 153.430 280, 154.066 280 C 156.428 280, 158.911 282.187, 161.980 286.969 C 164.958 291.610, 165.513 292, 169.139 292 C 173.672 292, 173.588 291.543, 167.615 283.719 L 164.192 279.234 166.616 278.129 C 171.418 275.941, 172.083 267.572, 167.698 264.501 C 166.166 263.428, 162.909 263, 156.277 263 L 147 263 147 277.500 M 180.763 264.565 C 176.998 266.608, 174.714 271.492, 174.714 277.500 C 174.714 286.767, 179.509 292, 188 292 C 193.227 292, 197.265 289.909, 198.879 286.366 C 199.981 283.948, 199.915 283.411, 198.383 282.291 C 195.860 280.446, 195.140 280.639, 192 284 C 188.734 287.496, 187.104 287.714, 183.861 285.088 C 181.881 283.486, 181.500 282.259, 181.500 277.500 C 181.500 272.741, 181.881 271.514, 183.861 269.912 C 187.071 267.312, 189.642 267.510, 192.485 270.578 C 194.970 273.259, 198.974 273.622, 199.759 271.238 C 199.988 270.543, 198.606 268.406, 196.688 266.488 C 193.644 263.444, 192.582 263.005, 188.350 263.040 C 185.683 263.062, 182.268 263.748, 180.763 264.565 M 220.250 266.927 C 217.803 269.141, 216 271.668, 216 272.886 C 216 275.408, 216.242 275.444, 220.050 273.474 L 223 271.949 223 281.974 L 223 292 226 292 L 229 292 229 277.500 C 229 263.117, 228.982 263, 226.750 263.041 C 225.512 263.064, 222.588 264.812, 220.250 266.927 M 239.455 265.455 C 235.918 268.991, 236.169 272, 240 272 C 241.898 272, 243 271.488, 243 270.607 C 243 269.044, 245.694 267.693, 247.090 268.556 C 248.645 269.517, 248.090 272.823, 246.143 274.193 C 245.122 274.912, 243.945 276.581, 243.528 277.901 C 242.908 279.864, 243.064 280.189, 244.385 279.683 C 247.068 278.653, 249 280.041, 249 283 C 249 287.074, 244.049 288.176, 242.609 284.423 C 241.877 282.516, 236 282.517, 236 284.423 C 236 285.206, 237.165 287.231, 238.589 288.923 C 240.772 291.517, 241.882 292, 245.666 292 C 254.154 292, 258.912 283.821, 253.545 278.455 C 252.195 277.105, 251.466 276, 251.924 276 C 252.382 276, 253.297 274.696, 253.957 273.103 C 254.939 270.733, 254.877 269.662, 253.616 267.224 C 251.854 263.817, 250.259 263, 245.373 263 C 243.029 263, 241.116 263.793, 239.455 265.455 M 260.455 265.455 C 256.995 268.914, 257.043 275.133, 260.554 278.645 C 262.622 280.713, 263.861 281.128, 267.054 280.823 C 270.253 280.518, 271 280.770, 271 282.152 C 271 283.994, 268.456 287, 266.897 287 C 266.369 287, 265.678 286.325, 265.362 285.500 C 265.034 284.645, 263.542 284, 261.893 284 C 259.667 284, 259 284.461, 259 286 C 259 292.139, 268.921 294.232, 273.991 289.163 C 279.243 283.910, 279.224 271.070, 273.956 265.802 C 270.189 262.035, 264.032 261.877, 260.455 265.455 M 283.637 265.250 C 282.275 266.488, 280.870 268.512, 280.513 269.750 C 279.927 271.784, 280.208 272, 283.433 272 C 285.815 272, 287 271.537, 287 270.607 C 287 268.918, 289.443 267.849, 291.500 268.638 C 294.665 269.853, 293.169 274.410, 287.922 279.538 C 283.065 284.284, 280 288.699, 280 290.950 C 280 291.613, 283.685 292, 290 292 L 300 292 300 289 C 300 286.017, 299.968 286, 294.288 286 L 288.575 286 293.231 281.250 C 299.010 275.354, 300.541 271.720, 298.908 267.778 C 297.425 264.199, 295.221 263, 290.122 263 C 287.363 263, 285.339 263.702, 283.637 265.250 M 306.189 265.039 C 303.569 267.480, 303.353 271.627, 305.710 274.232 C 306.834 275.474, 307.057 276.358, 306.360 276.811 C 304.750 277.857, 303 281.608, 303 284.011 C 303 285.190, 304.315 287.469, 305.923 289.077 C 308.269 291.423, 309.700 291.994, 313.173 291.968 C 317.826 291.934, 319.998 290.767, 321.837 287.316 C 323.556 284.088, 323.255 280.594, 321.014 277.745 C 319.276 275.535, 319.214 275.067, 320.514 273.988 C 322.607 272.251, 322.359 268.727, 319.927 265.635 C 318.209 263.451, 317.044 263, 313.116 263 C 309.729 263, 307.753 263.582, 306.189 265.039 M 330.229 263.669 C 325.803 265.450, 323.860 281.184, 327.270 287.629 C 329.092 291.072, 330.733 292, 335 292 C 336.560 292, 338.565 291.720, 339.455 291.379 C 345.996 288.869, 345.996 266.131, 339.455 263.621 C 337.572 262.898, 332.074 262.927, 330.229 263.669 M 350.637 265.250 C 349.275 266.488, 347.870 268.512, 347.513 269.750 C 346.927 271.784, 347.208 272, 350.433 272 C 352.815 272, 354 271.537, 354 270.607 C 354 268.918, 356.443 267.849, 358.500 268.638 C 361.665 269.853, 360.169 274.410, 354.922 279.538 C 350.065 284.284, 347 288.699, 347 290.950 C 347 291.613, 350.685 292, 357 292 L 367 292 367 289 C 367 286.017, 366.968 286, 361.288 286 L 355.575 286 360.231 281.250 C 366.010 275.354, 367.541 271.720, 365.908 267.778 C 364.425 264.199, 362.221 263, 357.122 263 C 354.363 263, 352.339 263.702, 350.637 265.250 M 102.174 269.314 C 97.803 273.967, 100.332 281.382, 106.710 282.614 C 109.396 283.133, 110.416 282.738, 112.960 280.194 C 116.686 276.468, 116.886 272.795, 113.545 269.455 C 110.298 266.207, 105.153 266.143, 102.174 269.314 M 311.250 267.667 C 309.411 268.402, 309.728 272.682, 311.678 273.430 C 314.127 274.370, 316.769 271.442, 315.412 269.291 C 314.215 267.394, 313.059 266.943, 311.250 267.667 M 153 271.445 C 153 274.896, 153.111 275, 156.809 275 C 165.680 275, 166.448 268.772, 157.648 268.195 L 153 267.890 153 271.445 M 265.200 269.200 C 262.335 272.065, 265.511 277.427, 268.834 275.335 C 271.141 273.882, 271.404 271.547, 269.479 269.621 C 267.542 267.685, 266.789 267.611, 265.200 269.200 M 333.200 269.200 C 331.378 271.022, 331.618 284.438, 333.500 286 C 336.426 288.428, 338 285.483, 338 277.578 C 338 271.148, 337.014 268, 335 268 C 334.670 268, 333.860 268.540, 333.200 269.200 M 311.200 279.200 C 308.090 282.310, 311.225 289.718, 314.500 287 C 317.045 284.888, 315.897 278, 313 278 C 312.670 278, 311.860 278.540, 311.200 279.200" stroke="none" fill="#0c5a93" fill-rule="evenodd"/></svg>