<svg xmlns="http://www.w3.org/2000/svg" width="318" height="159" viewBox="0 0 318 159" version="1.1"><path d="M 240.732 39.086 C 225.892 40.906, 224.420 41.787, 236 41.917 C 247.035 42.041, 257.853 43.838, 262.725 46.358 C 270.865 50.567, 275.052 58.822, 273.195 67 L 272.173 71.500 274.601 68.500 C 281.734 59.685, 284.212 48.212, 279.912 43.912 C 276.105 40.105, 271.066 38.753, 259.500 38.435 C 253.450 38.269, 245.004 38.562, 240.732 39.086 M 210.500 47.215 C 206.100 47.630, 199.358 48.543, 195.517 49.244 L 188.534 50.519 202.017 50.679 C 228.532 50.992, 246.338 57.266, 252.728 68.547 C 256.886 75.888, 254.995 84.517, 247.349 93.091 L 243.500 97.407 248.366 93.954 C 255.406 88.957, 263.670 80.312, 265.991 75.519 C 268.535 70.264, 268.528 66.722, 265.965 61.427 C 262.035 53.310, 251.796 48.802, 233.251 47.026 C 227.338 46.460, 221.600 46.101, 220.500 46.229 C 219.400 46.356, 214.900 46.800, 210.500 47.215 M 132.736 75.250 C 126.161 83.474, 98 120.945, 98 121.469 C 98 121.761, 100.634 122, 103.852 122 L 109.705 122 114.419 116 L 119.133 110 132.662 110 L 146.192 110 142.681 105.250 C 139.272 100.638, 138.991 100.485, 133.031 100 L 126.892 99.500 131.588 93.192 C 134.170 89.722, 136.616 87.247, 137.023 87.692 C 137.429 88.136, 143.467 96.037, 150.439 105.250 L 163.115 122 169.058 122 C 172.326 122, 175 121.803, 175 121.562 C 175 120.949, 136.983 71, 136.516 71 C 136.306 71, 134.605 72.912, 132.736 75.250 M 36 79.500 L 36 86 41 86 C 44.778 86, 46 85.633, 46 84.500 C 46 83.246, 48.063 83, 58.566 83 C 72.188 83, 75 83.766, 75 87.478 C 75 92.275, 72.141 93, 53.223 93 L 35.890 93 36.195 97.750 L 36.500 102.500 59.225 102.769 C 80.963 103.026, 81.997 103.126, 83.046 105.086 C 83.894 106.671, 83.782 107.684, 82.548 109.567 C 80.960 111.991, 80.887 112, 63.477 112 C 48.609 112, 46 111.776, 46 110.500 C 46 109.367, 44.778 109, 41 109 L 36 109 36 115.500 L 36 122 58.532 122 C 83.292 122, 85.663 121.566, 90.172 116.207 C 93.906 111.770, 94.530 106.986, 92.094 101.479 C 90.950 98.893, 88.870 96.258, 87.229 95.317 C 84.559 93.784, 84.391 93.324, 84.770 88.586 C 85.101 84.464, 84.735 82.856, 82.839 80.102 C 78.399 73.651, 75.824 73, 54.766 73 L 36 73 36 79.500 M 166 78 L 166 83 196.500 83 L 227 83 227 78 L 227 73 196.500 73 L 166 73 166 78 M 192 105.500 L 192 122 197 122 L 202 122 202 105.500 L 202 89 197 89 L 192 89 192 105.500" stroke="none" fill="#23346c" fill-rule="evenodd"/><path d="M 0 79.503 L 0 159.006 159.250 158.753 L 318.500 158.500 318.756 79.250 L 319.012 0 159.506 0 L 0 0 0 79.503 M 0.476 80 C 0.476 123.725, 0.599 141.612, 0.750 119.750 C 0.900 97.887, 0.900 62.112, 0.750 40.250 C 0.599 18.387, 0.476 36.275, 0.476 80 M 240.732 39.086 C 225.892 40.906, 224.420 41.787, 236 41.917 C 247.035 42.041, 257.853 43.838, 262.725 46.358 C 270.865 50.567, 275.052 58.822, 273.195 67 L 272.173 71.500 274.601 68.500 C 281.734 59.685, 284.212 48.212, 279.912 43.912 C 276.105 40.105, 271.066 38.753, 259.500 38.435 C 253.450 38.269, 245.004 38.562, 240.732 39.086 M 210.500 47.215 C 206.100 47.630, 199.358 48.543, 195.517 49.244 L 188.534 50.519 202.017 50.679 C 228.532 50.992, 246.338 57.266, 252.728 68.547 C 256.886 75.888, 254.995 84.517, 247.349 93.091 L 243.500 97.407 248.366 93.954 C 255.406 88.957, 263.670 80.312, 265.991 75.519 C 268.535 70.264, 268.528 66.722, 265.965 61.427 C 262.035 53.310, 251.796 48.802, 233.251 47.026 C 227.338 46.460, 221.600 46.101, 220.500 46.229 C 219.400 46.356, 214.900 46.800, 210.500 47.215 M 132.736 75.250 C 126.161 83.474, 98 120.945, 98 121.469 C 98 121.761, 100.634 122, 103.852 122 L 109.705 122 114.419 116 L 119.133 110 132.662 110 L 146.192 110 142.681 105.250 C 139.272 100.638, 138.991 100.485, 133.031 100 L 126.892 99.500 131.588 93.192 C 134.170 89.722, 136.616 87.247, 137.023 87.692 C 137.429 88.136, 143.467 96.037, 150.439 105.250 L 163.115 122 169.058 122 C 172.326 122, 175 121.803, 175 121.562 C 175 120.949, 136.983 71, 136.516 71 C 136.306 71, 134.605 72.912, 132.736 75.250 M 36 79.500 L 36 86 41 86 C 44.778 86, 46 85.633, 46 84.500 C 46 83.246, 48.063 83, 58.566 83 C 72.188 83, 75 83.766, 75 87.478 C 75 92.275, 72.141 93, 53.223 93 L 35.890 93 36.195 97.750 L 36.500 102.500 59.225 102.769 C 80.963 103.026, 81.997 103.126, 83.046 105.086 C 83.894 106.671, 83.782 107.684, 82.548 109.567 C 80.960 111.991, 80.887 112, 63.477 112 C 48.609 112, 46 111.776, 46 110.500 C 46 109.367, 44.778 109, 41 109 L 36 109 36 115.500 L 36 122 58.532 122 C 83.292 122, 85.663 121.566, 90.172 116.207 C 93.906 111.770, 94.530 106.986, 92.094 101.479 C 90.950 98.893, 88.870 96.258, 87.229 95.317 C 84.559 93.784, 84.391 93.324, 84.770 88.586 C 85.101 84.464, 84.735 82.856, 82.839 80.102 C 78.399 73.651, 75.824 73, 54.766 73 L 36 73 36 79.500 M 166 78 L 166 83 196.500 83 L 227 83 227 78 L 227 73 196.500 73 L 166 73 166 78 M 192 105.500 L 192 122 197 122 L 202 122 202 105.500 L 202 89 197 89 L 192 89 192 105.500" stroke="none" fill="#fbfbfb" fill-rule="evenodd"/></svg>